<svg id="Layer_1" data-name="Layer 1" xmlns="http://www.w3.org/2000/svg" xmlns:xlink="http://www.w3.org/1999/xlink" viewBox="0 0 512 512"><defs><radialGradient id="GradientFill_1" cx="273.97" cy="229.81" r="285.66" gradientUnits="userSpaceOnUse"><stop offset="0" stop-color="#fff"/><stop offset="0.51" stop-color="#fbfbfb"/><stop offset="1" stop-color="#d0d2d3"/></radialGradient></defs><title>chart</title><path d="M282.47,100.2,18.21,205.55c-14.71,5.88-22.36,23-15.89,37.08L94.72,454.5c5.88,14.71,22.37,21.78,36.49,15.89l233.65-93c27.66,18.82,51.2,30.6,87.69,28.24-25.3-10.59-39.44-21.78-57.68-40.61h1.17c14.13-5.88,21.78-23,15.89-37.08l-92.4-211.88C313.07,101.37,297.18,94.31,282.47,100.2Z" fill="#231f20" fill-rule="evenodd"/><path d="M283.64,107.26,28.21,201.42c-14.12,5.3-21.78,21.19-16.48,35.32l83,204.82c5.88,14.12,20.6,21.19,34.72,16.48l226-83.58c25.31,18.84,47.67,30.61,83,29.43-24.13-10.59-37.08-21.78-54.15-40l1.18-.59c14.12-5.3,21.78-20.6,15.89-34.72l-83-205.4C313.07,109.61,297.77,102,283.64,107.26Z" fill="#839ca9" fill-rule="evenodd"/><path d="M389.59,40.16,71.17,99.61c-17.07,2.94-29.42,20-25.9,37.66l56.5,256.61c3.54,17.66,20,29.42,37.67,25.9L420.19,367.4C446.67,394.47,470.8,412.71,512,418c-25.9-17.07-39.43-32.36-55.33-57.67h1.18c17.07-3.53,29.42-20.6,25.9-37.67L427.25,65.48C423.72,48.41,407.24,36.63,389.59,40.16Z" fill="#231f20" fill-rule="evenodd"/><path d="M389,48.41,83.54,97.25c-17.07,2.95-28.84,18.83-25.9,35.31l47.08,247.19c3.54,16.48,18.83,28.25,35.32,25.31l270.14-43c24.71,26.49,47.08,44.74,86.52,50.62-24.71-16.48-37.08-31.78-51.2-56.5h.59c17.07-2.36,28.83-18.83,25.9-35.31L424.89,73.71C421.36,57.24,406.06,45.46,389,48.41Z" fill-rule="evenodd" fill="url(#GradientFill_1)"/><path d="M342.5,304.42l67.69-11.77L414.3,315l-71.8,12.36v-23Zm0-11.18L391.93,285,357.8,88.43l-15.3,2.36Zm-37.67,17.66,37.67-6.47v23l-37.67,6.48v-23ZM342.5,90.78V293.24l-15.3,2.95-22.37-128.9v-70l37.67-6.47ZM304.83,299.71l11.77-1.76-11.77-67.68Zm-33,16.48,33-5.3v23l-33,5.88V316.2Zm33-218.94v70L293.06,99.61l11.77-2.36Zm0,133L292.47,159l-20.6,3.53v143l33-5.88Zm-70.62,93,37.67-7.06v23.54l-37.67,6.47v-23Zm37.67-160.67v143l-20,3.54L234.2,209.08v-40l37.67-6.48ZM234.2,312.08l7.07-1.18-7.07-38.84Zm-33,16.48,33-5.3v23l-33,5.88V328.55Zm33-159.49v40l-6.47-38.84,6.47-1.17Zm0,103-11.77-68.27-21.19,3.53V318l33-5.88Zm-73,63.56,40-7.06v23.54l-35.9,6.47-4.12-23Zm40-128.3V318l-25.31,4.12L157.69,215Z" fill="#231f20" fill-rule="evenodd"/></svg>